# xmcd
#
# Track frame offsets: 
#        183
#        10743
#        21675
#        34313
#        45698
#        58348
#        69880
#        81418
#        97160
#        109625
#        121595
#        131980
#        143550
#        155880
#        166700
#        206760
#        231355
#
# Disc length: 3384 seconds
#
# Revision: 0
# Processed by: cddbd v1.5.1PL2 Copyright (c) Steve Scherf et al.
# Submitted via: ExactAudioCopy v0.95b3
#
DISCID=f40d3611
DTITLE=The Impressions (feat. Curtis Mayfield) - All The Best
DYEAR=1975
DGENRE=Blues
TTITLE0=Gypsy Woman
TTITLE1=I'm the Only One Who Loves You
TTITLE2=It's All Right
TTITLE3=Talking About My Baby
TTITLE4=I'm So Proud
TTITLE5=Keep on Pushing
TTITLE6=You Must Believe Me
TTITLE7=Amen
TTITLE8=I've Been Trying
TTITLE9=People Get Ready
TTITLE10=Woman's Got Soul
TTITLE11=You've Been Cheatin'
TTITLE12=Right on Time
TTITLE13=We're a Winner
TTITLE14=Move on Up
TTITLE15=Freddie's Dead
TTITLE16=First Impressions
EXTD=
EXTT0=
EXTT1=
EXTT2=
EXTT3=
EXTT4=
EXTT5=
EXTT6=
EXTT7=
EXTT8=
EXTT9=
EXTT10=
EXTT11=
EXTT12=
EXTT13=
EXTT14=
EXTT15=
EXTT16=
PLAYORDER=
